<svg width="1418" height="148" viewBox="0 0 1418 148" fill="none" xmlns="http://www.w3.org/2000/svg">
<path d="M79 147.2C67.6667 147.2 57.2 145.467 47.6 142C38.1333 138.4 29.8667 133.333 22.8 126.8C15.8667 120.267 10.4667 112.533 6.59999 103.6C2.73332 94.6667 0.799988 84.8 0.799988 74C0.799988 63.2 2.73332 53.3333 6.59999 44.4C10.4667 35.4667 15.9333 27.7333 23 21.2C30.0667 14.6667 38.4 9.66665 48 6.19999C57.7333 2.59999 68.4 0.799988 80 0.799988C93.8667 0.799988 106.2 3.13332 117 7.79998C127.933 12.4667 136.933 19.1333 144 27.8L113.8 54.4C109.4 49.3333 104.6 45.5333 99.4 43C94.3333 40.3333 88.6667 39 82.4 39C77.2 39 72.4667 39.8 68.2 41.4C64.0667 43 60.5333 45.3333 57.6 48.4C54.6667 51.4667 52.4 55.1333 50.8 59.4C49.2 63.6667 48.4 68.5333 48.4 74C48.4 79.2 49.2 84 50.8 88.4C52.4 92.6667 54.6667 96.3333 57.6 99.4C60.5333 102.467 64 104.867 68 106.6C72.1333 108.2 76.7333 109 81.8 109C87.1333 109 92.3333 108.133 97.4 106.4C102.467 104.533 107.867 101.4 113.6 97L140 129.4C131.467 135.133 121.733 139.533 110.8 142.6C99.8667 145.667 89.2667 147.2 79 147.2ZM99 123.4V70.2H140V129.4L99 123.4Z" fill="#F2F7FB"/>
<path d="M144.911 144L206.111 3.99998H252.511L313.711 144H264.911L219.711 26.4H238.111L192.911 144H144.911ZM181.311 119.6L193.311 85.6H257.711L269.711 119.6H181.311Z" fill="#F2F7FB"/>
<path d="M373.444 147.2C361.71 147.2 350.377 145.867 339.444 143.2C328.51 140.533 319.51 137.067 312.444 132.8L327.644 98.4C334.31 102.267 341.71 105.4 349.844 107.8C358.11 110.067 366.11 111.2 373.844 111.2C378.377 111.2 381.91 110.933 384.444 110.4C387.11 109.733 389.044 108.867 390.244 107.8C391.444 106.6 392.044 105.2 392.044 103.6C392.044 101.067 390.644 99.0666 387.844 97.6C385.044 96.1333 381.31 94.9333 376.644 94C372.11 92.9333 367.11 91.8667 361.644 90.8C356.177 89.6 350.644 88.0667 345.044 86.2C339.577 84.3333 334.51 81.8667 329.844 78.8C325.31 75.7333 321.644 71.7333 318.844 66.8C316.044 61.7333 314.644 55.4667 314.644 48C314.644 39.3333 317.044 31.4667 321.844 24.4C326.777 17.2 334.044 11.4667 343.644 7.19999C353.377 2.93332 365.444 0.799988 379.844 0.799988C389.31 0.799988 398.644 1.79999 407.844 3.79998C417.044 5.79998 425.31 8.86665 432.644 13L418.444 47.2C411.51 43.7333 404.777 41.1333 398.244 39.4C391.844 37.6667 385.577 36.8 379.444 36.8C374.91 36.8 371.31 37.2 368.644 38C365.977 38.8 364.044 39.8666 362.844 41.2C361.777 42.5333 361.244 44 361.244 45.6C361.244 48 362.644 49.9333 365.444 51.4C368.244 52.7333 371.91 53.8667 376.444 54.8C381.11 55.7333 386.177 56.7333 391.644 57.8C397.244 58.8667 402.777 60.3333 408.244 62.2C413.71 64.0667 418.71 66.5333 423.244 69.6C427.91 72.6667 431.644 76.6667 434.444 81.6C437.244 86.5333 438.644 92.6667 438.644 100C438.644 108.533 436.177 116.4 431.244 123.6C426.444 130.667 419.244 136.4 409.644 140.8C400.044 145.067 387.977 147.2 373.444 147.2Z" fill="#F2F7FB"/>
<path d="M564.85 147.2C553.117 147.2 541.783 145.867 530.85 143.2C519.917 140.533 510.917 137.067 503.85 132.8L519.05 98.4C525.717 102.267 533.117 105.4 541.25 107.8C549.517 110.067 557.517 111.2 565.25 111.2C569.783 111.2 573.317 110.933 575.85 110.4C578.517 109.733 580.45 108.867 581.65 107.8C582.85 106.6 583.45 105.2 583.45 103.6C583.45 101.067 582.05 99.0666 579.25 97.6C576.45 96.1333 572.717 94.9333 568.05 94C563.517 92.9333 558.517 91.8667 553.05 90.8C547.583 89.6 542.05 88.0667 536.45 86.2C530.983 84.3333 525.917 81.8667 521.25 78.8C516.717 75.7333 513.05 71.7333 510.25 66.8C507.45 61.7333 506.05 55.4667 506.05 48C506.05 39.3333 508.45 31.4667 513.25 24.4C518.183 17.2 525.45 11.4667 535.05 7.19999C544.783 2.93332 556.85 0.799988 571.25 0.799988C580.717 0.799988 590.05 1.79999 599.25 3.79998C608.45 5.79998 616.717 8.86665 624.05 13L609.85 47.2C602.917 43.7333 596.183 41.1333 589.65 39.4C583.25 37.6667 576.983 36.8 570.85 36.8C566.317 36.8 562.717 37.2 560.05 38C557.383 38.8 555.45 39.8666 554.25 41.2C553.183 42.5333 552.65 44 552.65 45.6C552.65 48 554.05 49.9333 556.85 51.4C559.65 52.7333 563.317 53.8667 567.85 54.8C572.517 55.7333 577.583 56.7333 583.05 57.8C588.65 58.8667 594.183 60.3333 599.65 62.2C605.117 64.0667 610.117 66.5333 614.65 69.6C619.317 72.6667 623.05 76.6667 625.85 81.6C628.65 86.5333 630.05 92.6667 630.05 100C630.05 108.533 627.583 116.4 622.65 123.6C617.85 130.667 610.65 136.4 601.05 140.8C591.45 145.067 579.383 147.2 564.85 147.2Z" fill="#F2F7FB"/>
<path d="M687.295 56H749.695V90H687.295V56ZM690.495 108.4H760.495V144H644.095V3.99998H757.895V39.6H690.495V108.4Z" fill="#F2F7FB"/>
<path d="M778.666 144V3.99998H846.066C859.132 3.99998 870.399 6.13332 879.866 10.4C889.466 14.6666 896.866 20.8 902.066 28.8C907.266 36.6667 909.866 46 909.866 56.8C909.866 67.6 907.266 76.9333 902.066 84.8C896.866 92.5333 889.466 98.4667 879.866 102.6C870.399 106.733 859.132 108.8 846.066 108.8H804.866L825.866 89.4V144H778.666ZM862.466 144L828.066 93H878.066L912.866 144H862.466ZM825.866 94.6L804.866 73.2H843.066C849.599 73.2 854.399 71.7333 857.466 68.8C860.666 65.8667 862.266 61.8667 862.266 56.8C862.266 51.7333 860.666 47.7333 857.466 44.8C854.399 41.8667 849.599 40.4 843.066 40.4H804.866L825.866 19V94.6Z" fill="#F2F7FB"/>
<path d="M971.689 144L912.489 3.99998H963.289L1011.49 122.2H981.289L1030.89 3.99998H1077.29L1018.09 144H971.689Z" fill="#F2F7FB"/>
<path d="M1081.99 144V3.99998H1129.19V144H1081.99Z" fill="#F2F7FB"/>
<path d="M1224.31 147.2C1213.11 147.2 1202.71 145.467 1193.11 142C1183.64 138.4 1175.37 133.333 1168.31 126.8C1161.37 120.267 1155.97 112.533 1152.11 103.6C1148.24 94.6667 1146.31 84.8 1146.31 74C1146.31 63.2 1148.24 53.3333 1152.11 44.4C1155.97 35.4667 1161.37 27.7333 1168.31 21.2C1175.37 14.6667 1183.64 9.66665 1193.11 6.19999C1202.71 2.59999 1213.11 0.799988 1224.31 0.799988C1238.04 0.799988 1250.17 3.19999 1260.71 7.99999C1271.37 12.8 1280.17 19.7333 1287.11 28.8L1257.31 55.4C1253.17 50.2 1248.57 46.2 1243.51 43.4C1238.57 40.4667 1232.97 39 1226.71 39C1221.77 39 1217.31 39.8 1213.31 41.4C1209.31 43 1205.84 45.3333 1202.91 48.4C1200.11 51.4667 1197.91 55.2 1196.31 59.6C1194.71 63.8667 1193.91 68.6667 1193.91 74C1193.91 79.3333 1194.71 84.2 1196.31 88.6C1197.91 92.8667 1200.11 96.5333 1202.91 99.6C1205.84 102.667 1209.31 105 1213.31 106.6C1217.31 108.2 1221.77 109 1226.71 109C1232.97 109 1238.57 107.6 1243.51 104.8C1248.57 101.867 1253.17 97.8 1257.31 92.6L1287.11 119.2C1280.17 128.133 1271.37 135.067 1260.71 140C1250.17 144.8 1238.04 147.2 1224.31 147.2Z" fill="#F2F7FB"/>
<path d="M1343.94 56H1406.34V90H1343.94V56ZM1347.14 108.4H1417.14V144H1300.74V3.99998H1414.54V39.6H1347.14V108.4Z" fill="#F2F7FB"/>
</svg>
